# xmcd
#
# Track frame offsets:
#	150
#	17528
#	33737
#	50854
#	60061
#	76971
#	98581
#	113345
#	125044
#	147897
#	166721
#	178806
#	188263
#	202885
#	213814
#	225563
#	240552
#	256974
#	271156
#	291715
#	324712
#
# Disc length: 4437
#
# Revision: 2
# Processed by: cddbd v1.5.1PL0 Copyright (c) Steve Scherf et al.
# Submitted via: tcd 2.0b
# Normalized: r1:TDELIM( - )
#
DISCID=19115315
DTITLE=Golden Rock Ballads - vol. 3
DYEAR=1900
DGENRE=
TTITLE0=Elton John - Candle In The Wind
TTITLE1=Deep Purple - When A Blind Man Cries
TTITLE2=Rolling Stones - Paint It Black
TTITLE3=Mindbenders - Groovy Kind Of Love
TTITLE4=Cat Stevens - Lady D'Arbanville
TTITLE5=Roberta Flack - Killing Me Softly
TTITLE6=Neil Diamond - Song Sung Blue
TTITLE7=Herman's Hermit - A Kind Of Hush
TTITLE8=Dawid Bowie - Space Oddity
TTITLE9=Kinks - Lola
TTITLE10=Joe Cocker - Change In Louise
TTITLE11=Bill Whiters - Ain't No Sunshine
TTITLE12=The Tremeleos - Silence Is Golden
TTITLE13=Bee Gees - Massachusetts
TTITLE14=The Righteous Brothers - He Great Pretender
TTITLE15=Engelberth Humperdinck - Spanish Eyes
TTITLE16=George Harrison - Give Me Love
TTITLE17=Simon and Garfunkel - El Condor Pasa
TTITLE18=Janis Joplin - Me and Bobby McGee
TTITLE19=Electric Light Orchestra - Momma
TTITLE20=Genesis - For Absent Friends
EXTD=
EXTT0=
EXTT1=
EXTT2=
EXTT3=
EXTT4=
EXTT5=
EXTT6=
EXTT7=
EXTT8=
EXTT9=
EXTT10=
EXTT11=
EXTT12=
EXTT13=
EXTT14=
EXTT15=
EXTT16=
EXTT17=
EXTT18=
EXTT19=
EXTT20=
PLAYORDER=
